<svg xmlns="http://www.w3.org/2000/svg" viewBox="0 0 24 24" width="24" height="24"><path fill="#fff" d="M12 8a4 4 0 100 8 4 4 0 000-8zm8.94 4a6.99 6.99 0 01-.07 1l2.04 1.57a.5.5 0 01.12.64l-1.93 3.34a.5.5 0 01-.6.22l-2.4-.96a7.02 7.02 0 01-1.7.98l-.36 2.54a.5.5 0 01-.5.42h-3.86a.5.5 0 01-.5-.42l-.36-2.54a7.02 7.02 0 01-1.7-.98l-2.4.96a.5.5 0 01-.6-.22L1.07 14.2a.5.5 0 01.12-.64L3.23 11.99a6.99 6.99 0 01-.07-1 6.99 6.99 0 01.07-1L1.19 8.42a.5.5 0 01-.12-.64L3 4.44a.5.5 0 01.6-.22l2.4.96c.54-.4 1.13-.74 1.7-.98L8.66 2.16A.5.5 0 019.16 2h3.68a.5.5 0 01.5.42l.36 2.54c.57.24 1.16.58 1.7.98l2.4-.96a.5.5 0 01.6.22l1.93 3.34a.5.5 0 01-.12.64l-2.04 1.57c.05.33.07.66.07 1z"/></svg>